<?xml version="1.0" encoding="UTF-8" standalone="no"?>
<!DOCTYPE svg PUBLIC "-//W3C//DTD SVG 1.1//EN" "http://www.w3.org/Graphics/SVG/1.1/DTD/svg11.dtd">
<svg version="1.1" xmlns="http://www.w3.org/2000/svg" xmlns:xlink="http://www.w3.org/1999/xlink" preserveAspectRatio="xMidYMid meet" viewBox="227.9869291243576 405.23547697689344 95.27824456884335 95.27826498316881" width="91.28" height="91.28"><defs><path d="M274.58 497.51C249.38 497.49 228.96 477.04 228.99 451.83C229.01 426.63 249.46 406.21 274.67 406.24C290.3 406.25 304.83 414.26 313.19 427.47C317.81 434.79 320.27 443.26 320.27 451.92C320.24 477.12 299.79 497.54 274.58 497.51Z" id="c3mUqbYoz"></path><path d="M268.14 472.51C265.31 468.13 249.53 447.76 249.53 447.76C251.56 445.71 253.71 443.81 255.99 442.06C256.86 443.22 261.22 449.03 269.07 459.5C292.38 436.19 305.33 423.24 307.92 420.65C309.89 422.75 311.65 425.04 313.19 427.47C304.18 436.48 272.65 468.01 268.14 472.51Z" id="aeOjZQm9y"></path></defs><g><g><use xlink:href="#c3mUqbYoz" opacity="1" fill="#6c63ff" fill-opacity="1"></use><g><use xlink:href="#c3mUqbYoz" opacity="1" fill-opacity="0" stroke="#000000" stroke-width="1" stroke-opacity="0"></use></g></g><g><use xlink:href="#aeOjZQm9y" opacity="1" fill="#ffffff" fill-opacity="1"></use><g><use xlink:href="#aeOjZQm9y" opacity="1" fill-opacity="0" stroke="#000000" stroke-width="1" stroke-opacity="0"></use></g></g></g></svg>